<?xml version="1.0" standalone="no"?>
<!DOCTYPE svg PUBLIC "-//W3C//DTD SVG 20010904//EN"
 "http://www.w3.org/TR/2001/REC-SVG-20010904/DTD/svg10.dtd">
<svg version="1.0" xmlns="http://www.w3.org/2000/svg"
 width="225.000000pt" height="225.000000pt" viewBox="0 0 225.000000 225.000000"
 preserveAspectRatio="xMidYMid meet">
<metadata>
Created by potrace 1.11, written by Peter Selinger 2001-2013
</metadata>
<g transform="translate(0.000000,225.000000) scale(0.100000,-0.100000)"
fill="#000000" stroke="none">
<path d="M348 1864 c-125 -30 -217 -104 -275 -222 -38 -75 -38 -77 -38 -196 1
-144 16 -188 92 -264 63 -63 148 -98 394 -162 218 -57 282 -83 332 -140 106
-117 53 -313 -107 -398 -47 -25 -60 -27 -166 -27 -110 0 -118 1 -185 34 -143
70 -257 219 -301 394 l-17 68 -36 -3 -36 -3 0 -280 0 -280 37 -3 c34 -3 40 1
89 62 29 36 55 66 58 66 3 0 27 -15 54 -34 127 -90 294 -124 448 -92 90 19
151 50 215 109 195 178 193 488 -4 632 -63 46 -153 78 -352 127 -263 64 -310
86 -358 167 -23 38 -27 58 -27 116 1 84 23 132 85 189 63 57 101 70 205 71 83
0 96 -3 160 -34 124 -61 196 -153 260 -335 31 -86 34 -91 64 -94 l31 -3 0 220
0 221 79 0 c64 0 83 -4 105 -21 l26 -20 0 -609 c0 -552 -2 -609 -16 -621 -11
-9 -53 -16 -113 -19 l-96 -5 0 -35 0 -35 435 0 c422 0 437 1 513 23 161 46
264 119 314 221 24 48 28 68 28 141 0 70 -5 94 -25 135 -47 97 -157 174 -303
215 -61 17 -61 18 -34 29 142 56 230 130 265 224 70 185 -35 366 -246 430 -62
19 -102 21 -497 24 -244 3 -434 8 -439 14 -6 5 -24 9 -41 9 -28 0 -37 -8 -75
-64 l-44 -65 -46 33 c-128 94 -270 125 -412 90z m1452 -121 c99 -45 133 -108
133 -243 1 -52 -5 -113 -11 -136 -18 -64 -64 -118 -123 -148 -51 -25 -59 -26
-231 -26 l-178 0 0 268 c0 147 4 272 8 279 17 27 61 33 207 30 126 -3 157 -7
195 -24z m46 -665 c53 -28 103 -77 129 -127 27 -54 39 -160 25 -240 -16 -98
-56 -156 -134 -196 -59 -30 -61 -30 -247 -33 -179 -3 -188 -3 -208 17 -20 20
-21 31 -21 317 l0 296 203 -4 c196 -3 203 -4 253 -30z"/>
</g>
</svg>
