<?xml version="1.0" encoding="utf-8"?>
<!-- Generator: Adobe Illustrator 19.0.0, SVG Export Plug-In . SVG Version: 6.00 Build 0)  -->
<svg version="1.1" id="Layer_1" xmlns="http://www.w3.org/2000/svg" xmlns:xlink="http://www.w3.org/1999/xlink" x="0px" y="0px"
	 viewBox="0 0 243.2 166.2" style="enable-background:new 0 0 243.2 166.2;" xml:space="preserve">
<path id="XMLID_90_" d="M226.5,92.9c-6.8-6.2-17-10.7-30.6-13.5c11-3.3,19.2-7.8,24.7-13.6s8.2-12.7,8.2-20.9
	c0-9.8-3.9-17.9-11.8-24.4c-7.8-6.5-19.2-9.7-33.9-9.7h-74.7l0-2h-7.1l-8.8,12.7c-5.9-5-11.5-8.6-17-10.7S64.3,7.6,58.2,7.6
	c-12.6,0-23,4.1-31.1,12.2S14.9,38.3,14.9,51c0,12.2,4.1,21.6,12.2,28.2c5.8,4.7,16.7,8.9,32.6,12.7c14.5,3.4,24.3,6.3,29.2,8.6
	c4.9,2.4,8.6,5.3,10.8,8.8c2.3,3.5,3.4,7.5,3.4,12.2c0,8.1-3,15.1-9.1,20.8c-6.1,5.7-13.9,8.5-23.6,8.5c-11.9,0-22.6-4.5-32.1-13.4
	c-9.5-8.9-15.6-20.6-18.4-36.6h-7.4v56H20l11-13.5c11,9.6,24,14.5,38.9,14.5c13.9,0,25.2-4.3,33.9-12.8c8.8-8.6,13.1-19.3,13.1-32.4
	c0-7.3-1.6-13.7-4.8-19.1c-3.2-5.4-8-9.9-14.5-13.5c-6.5-3.6-17.8-7.1-33.8-10.6c-11.5-2.5-19.3-4.8-23.4-7c-4.1-2.2-7.2-5-9.3-8.5
	c-2.1-3.5-3.1-7.5-3.1-12.2c0-7.4,2.7-13.7,8.2-18.9c5.5-5.1,12.5-7.7,21.1-7.7c10.3,0,19.4,3.8,27.3,11.2s13.9,19.4,17.9,35.4h6.4
	l-0.5-44h12c3.1,0,5.7,0.8,7.4,2.2c1.6,1.4,2.7,3.5,2.7,6.3V142c0,1.5-1.1,2.9-2.7,4s-4.5,1.8-8.1,1.8h-12.2v7h73.3
	c11.5,0,21.7-1.8,30.7-5.6c9-3.8,15.5-8.5,19.3-14c3.9-5.5,5.8-11.9,5.8-19C236.7,106.8,233.3,99,226.5,92.9z M150.6,25.5
	c0-2.9,1.1-4.9,3-6c1.9-1.1,6.9-1.7,14.8-1.7c11.1,0,19,0.9,23.5,2.7c4.5,1.8,8,4.6,10.4,8.5c2.4,3.9,3.6,9.3,3.6,16.3
	c0,11.2-2.5,19.3-7.5,24.2c-5,4.9-11.7,7.3-20.1,7.3h-27.8V25.5z M204.7,140.1c-5.5,5.1-14.1,7.7-25.7,7.7h-17.5c-4,0-6.9-0.7-8.5-2
	c-1.5-1.3-2.5-3.3-2.5-5.9V83.8h30.1c10.1,0,18,3.1,23.7,8.8c5.7,5.7,8.6,13.6,8.6,23.5C213,126.9,210.2,135,204.7,140.1z"/>
</svg>
