<?xml version="1.0" encoding="utf-8"?>
<!-- Generator: Adobe Illustrator 19.0.0, SVG Export Plug-In . SVG Version: 6.00 Build 0)  -->
<svg version="1.1" id="Layer_1" xmlns="http://www.w3.org/2000/svg" xmlns:xlink="http://www.w3.org/1999/xlink" x="0px" y="0px"
	 viewBox="0 0 949.7 250.8" style="enable-background:new 0 0 949.7 250.8;" xml:space="preserve">
<style type="text/css">
	.st0{fill:none;}
</style>
<g id="XMLID_1_">
	<polygon id="XMLID_2_" class="st0" points="804.3,42.3 789.9,81.6 818.1,81.6 	"/>
	<path id="XMLID_82_" class="st0" d="M576.4,162.9c-2.5-3.1-5.5-5.6-9.2-7.5c-3.6-1.9-7.7-2.8-12.2-2.8c-4.7,0-8.9,1-12.5,2.9
		c-3.7,1.9-6.7,4.5-9.2,7.7c-2.4,3.2-4.3,6.8-5.6,10.8c-1.3,4-1.9,8.1-1.9,12.2c0,4.3,0.7,8.5,2,12.6c1.3,4,3.2,7.6,5.7,10.7
		c2.5,3.1,5.5,5.6,9.2,7.5c3.6,1.9,7.7,2.9,12.3,2.9c2.5,0,4.9-0.2,7.1-0.9c2.2-0.6,4.3-1.3,6.1-2.3l-15.2-17h18.3l6.9,7.5
		c1.9-3,3.3-6.5,4.4-10.1c1-3.6,1.6-7.2,1.6-10.9c0-4.3-0.7-8.5-2-12.5C580.9,169.6,578.9,166,576.4,162.9z"/>
	<path id="XMLID_83_" class="st0" d="M134.1,197.4c-1-1.2-2.3-2.1-3.7-2.8s-3-0.9-4.7-0.9H95.7v26h29.1c1.8,0,3.5-0.3,5-0.9
		c1.6-0.7,2.9-1.5,4-2.7c1.1-1.2,2-2.6,2.7-4.2c0.7-1.6,1-3.3,1-5.1c0-1.8-0.3-3.5-0.9-5.1C135.9,200,135.1,198.6,134.1,197.4z"/>
	<path id="XMLID_84_" class="st0" d="M235.8,42.1c-1.3-1.5-2.7-2.6-4.4-3.4c-1.6-0.8-3.3-1.1-5-1.1h-23.8v32h24.6
		c1.8,0,3.5-0.3,5-1.1c1.6-0.8,2.9-1.8,4-3.3c1.1-1.5,2-3.2,2.7-5.1c0.7-2,1-4.1,1-6.3c0-2.3-0.4-4.5-1.1-6.5
		C238.1,45.3,237.1,43.6,235.8,42.1z"/>
	<path id="XMLID_85_" class="st0" d="M236.5,162.9c-2.5-3.1-5.5-5.6-9.2-7.4c-3.6-1.8-7.7-2.7-12.2-2.7c-4.7,0-8.9,1-12.5,2.9
		c-3.7,1.9-6.7,4.5-9.2,7.6c-2.4,3.2-4.3,6.7-5.6,10.7c-1.3,4-1.9,8.1-1.9,12.2c0,4.3,0.7,8.5,2,12.5c1.3,4,3.2,7.6,5.7,10.7
		c2.5,3.1,5.5,5.6,9.2,7.5c3.6,1.9,7.7,2.8,12.3,2.8c4.7,0,8.9-1,12.5-2.9c3.6-1.9,6.7-4.5,9.2-7.7c2.5-3.2,4.4-6.8,5.6-10.8
		c1.3-4,1.9-8.1,1.9-12.2c0-4.3-0.7-8.5-2-12.5C240.9,169.6,239,166,236.5,162.9z"/>
	<path id="XMLID_86_" class="st0" d="M130.2,174.4c2.3-2.3,3.5-5.2,3.5-9.1c0-3.9-1.1-6.9-3.2-9.2c-2.1-2.3-4.7-3.4-7.8-3.4H95.7v25
		h26.1C125.1,177.6,127.9,176.6,130.2,174.4z"/>
	<path id="XMLID_87_" class="st0" d="M914.3,42.1c-1.3-1.5-2.7-2.6-4.4-3.4c-1.6-0.8-3.3-1.1-5-1.1h-23.2v32h24.1
		c1.8,0,3.5-0.3,5-1.1c1.6-0.8,2.9-1.8,4-3.3c1.1-1.5,2-3.2,2.7-5.1c0.7-2,1-4.1,1-6.3c0-2.3-0.4-4.5-1.1-6.5
		C916.6,45.3,915.6,43.6,914.3,42.1z"/>
	<path id="XMLID_88_" d="M82.2,91.9c0-4.6-0.8-8.5-2.3-11.6c-1.5-3.1-3.6-5.9-6.4-8.1c-2.8-2.3-6.2-4.1-10.2-5.6
		c-4-1.5-8.4-2.9-13.3-4.2c-3.8-0.9-7.1-1.8-9.9-2.7c-2.9-0.8-5.2-1.8-7.1-2.8c-1.9-1-3.3-2.2-4.3-3.6c-1-1.4-1.5-3.1-1.5-5.1
		c0-3.6,1.3-6.3,3.9-8.3c2.6-2,6.6-3,12-3c3,0,6,0.4,8.9,1.1c2.9,0.8,5.6,1.7,8.1,2.7c2.5,1.1,4.6,2.2,6.3,3.3
		c1.7,1.1,2.9,2,3.6,2.7l8.6-15.8c-4.4-3-9.6-5.6-15.5-7.8c-5.9-2.2-12.4-3.3-19.5-3.3c-5.1,0-9.8,0.7-14.2,2
		c-4.4,1.4-8.3,3.4-11.6,6c-3.3,2.6-5.9,5.9-7.8,9.9c-1.9,3.9-2.8,8.5-2.8,13.5c0,3.9,0.6,7.2,1.8,9.9c1.2,2.8,2.9,5.2,5.3,7.3
		c2.3,2.1,5.3,3.9,8.8,5.5c3.5,1.6,7.7,3,12.5,4.3c3.9,1.1,7.5,2.2,10.7,3.1c3.2,0.9,5.9,2,8.2,3.1c2.3,1.1,4,2.4,5.2,3.9
		c1.2,1.5,1.8,3.3,1.8,5.5c0,6.9-5.4,10.3-16.1,10.3c-3.9,0-7.6-0.5-11.3-1.4c-3.7-0.9-7-2.1-10-3.5c-3-1.4-5.6-2.7-7.8-4.1
		c-2.2-1.4-3.7-2.5-4.6-3.3l-8.6,16.8c5.8,4.1,12.4,7.3,19.7,9.6c7.3,2.3,14.8,3.4,22.3,3.4c4.9,0,9.6-0.5,14-1.6
		c4.5-1.1,8.4-2.8,11.8-5.1c3.4-2.3,6.2-5.4,8.2-9.2C81.2,101.9,82.2,97.3,82.2,91.9z"/>
	<polygon id="XMLID_89_" points="119.7,120.6 138.7,120.6 138.7,37.6 170.7,37.6 170.7,20.6 87.7,20.6 87.7,37.6 119.7,37.6 	"/>
	<path id="XMLID_92_" d="M254.7,71.4c3.2-5.3,4.9-11.2,4.9-17.7c0-4-0.8-8.1-2.4-12.1c-1.6-4-3.8-7.6-6.6-10.7
		c-2.8-3.1-6.2-5.6-10.1-7.5c-3.9-1.9-8.2-2.8-12.8-2.8h-44v100h19v-34h19.4l20.4,34h21.9l-22.8-37.7
		C247.1,80.6,251.5,76.7,254.7,71.4z M239,60.1c-0.7,2-1.6,3.7-2.7,5.1c-1.1,1.5-2.5,2.4-4,3.3c-1.6,0.8-3.2,1.1-5,1.1h-24.6v-32
		h23.8c1.7,0,3.4,0.3,5,1.1c1.6,0.8,3.1,1.9,4.4,3.4c1.3,1.5,2.3,3.2,3,5.1c0.8,2,1.1,4.1,1.1,6.5C240,56,239.6,58.1,239,60.1z"/>
	<polygon id="XMLID_93_" points="346.7,103.6 296.7,103.6 296.7,77.6 338.7,77.6 338.7,61.6 296.7,61.6 296.7,37.6 345.7,37.6 
		345.7,20.6 277.7,20.6 277.7,120.6 346.7,120.6 	"/>
	<polygon id="XMLID_94_" points="431.7,103.6 381.7,103.6 381.7,77.6 423.7,77.6 423.7,61.6 381.7,61.6 381.7,37.6 429.7,37.6 
		429.7,20.6 361.7,20.6 361.7,120.6 431.7,120.6 	"/>
	<polygon id="XMLID_95_" points="489.7,120.6 489.7,37.6 521.7,37.6 521.7,20.6 438.7,20.6 438.7,37.6 470.7,37.6 470.7,120.6 	"/>
	<polygon id="XMLID_96_" points="672.1,20.6 651,20.6 622.7,98.4 610,66.3 627,20.6 609,20.6 597.7,53.7 586.4,20.6 568.5,20.6 
		585.3,66.2 572.9,98.3 544.4,20.6 523.5,20.6 564,120.6 580.4,120.6 597.7,78.6 615,120.6 631.4,120.6 	"/>
	<polygon id="XMLID_97_" points="751.7,103.6 701.7,103.6 701.7,77.6 743.7,77.6 743.7,61.6 701.7,61.6 701.7,37.6 750.7,37.6 
		750.7,20.6 682.7,20.6 682.7,120.6 751.7,120.6 	"/>
	<path id="XMLID_100_" d="M786.6,95.6h35l9.3,25h20l-38.1-100h-17.2l-38.2,100h20L786.6,95.6z M804.3,42.3l13.8,39.3h-28.2
		L804.3,42.3z"/>
	<path id="XMLID_103_" d="M920,82.9c5.5-2.3,9.9-6.2,13.2-11.5c3.2-5.3,4.9-11.2,4.9-17.7c0-4-0.8-8.1-2.4-12.1
		c-1.6-4-3.8-7.6-6.6-10.7c-2.8-3.1-6.2-5.6-10.1-7.5c-3.9-1.9-8.2-2.8-12.8-2.8h-44.5v100h20v-34h18.9l20.4,34h21.9L920,82.9z
		 M917.5,60.1c-0.7,2-1.6,3.7-2.7,5.1c-1.1,1.5-2.5,2.4-4,3.3c-1.6,0.8-3.2,1.1-5,1.1h-24.1v-32h23.2c1.7,0,3.4,0.3,5,1.1
		c1.6,0.8,3.1,1.9,4.4,3.4c1.3,1.5,2.3,3.2,3,5.1c0.8,2,1.1,4.1,1.1,6.5C918.5,56,918.1,58.1,917.5,60.1z"/>
	<path id="XMLID_106_" d="M138.4,184.9c4.7-2.1,8.3-5.2,10.7-9.5c2.4-4.3,3.7-8.9,3.7-13.7c0-3.1-0.5-6.2-1.6-9.2
		c-1.1-3.1-2.6-5.8-4.6-8.2c-2-2.4-4.4-4.6-7.2-6.1c-2.8-1.5-6-2.5-9.4-2.5H76.7v101h48.1c4.4,0,8.6-0.8,12.5-1.9
		c3.9-1.1,7.3-2.9,10.3-5c3-2.2,5.3-4.9,7-8.1c1.7-3.2,2.5-6.9,2.5-11.2c0-6.6-1.7-12.1-5-16.4C148.7,189.6,144.2,186.6,138.4,184.9
		z M95.7,152.6h26.9c3.1,0,5.7,1.2,7.8,3.4c2.1,2.3,3.2,5.3,3.2,9.2c0,3.9-1.2,6.9-3.5,9.1c-2.3,2.3-5.1,3.2-8.4,3.2H95.7V152.6z
		 M136.5,211.8c-0.7,1.6-1.6,3-2.7,4.2c-1.1,1.2-2.5,2-4,2.7c-1.6,0.7-3.2,0.9-5,0.9H95.7v-26h30.1c1.7,0,3.2,0.2,4.7,0.9
		s2.6,1.6,3.7,2.8c1,1.2,1.9,2.6,2.5,4.3c0.6,1.6,0.9,3.3,0.9,5.1C137.4,208.5,137.1,210.2,136.5,211.8z"/>
	<path id="XMLID_110_" d="M250.5,151.5c-4.2-4.8-9.3-8.7-15.3-11.6c-6-3-12.6-4.4-19.8-4.4c-7.1,0-13.6,1.4-19.6,4.2
		c-6,2.8-11.2,6.5-15.6,11.2c-4.4,4.7-7.8,10.1-10.3,16.2c-2.5,6.1-3.7,12.5-3.7,19.2c0,6.4,1.2,12.6,3.5,18.8
		c2.3,6.1,5.7,11.5,9.9,16.3c4.3,4.7,9.4,8.6,15.4,11.4c6,2.9,12.6,4.3,20,4.3c7,0,13.6-1.4,19.6-4.2c6-2.8,11.2-6.5,15.5-11.1
		c4.3-4.7,7.7-10,10.2-16.1c2.4-6.1,3.7-12.4,3.7-19.1c0-6.3-1.2-12.5-3.5-18.6C258,161.7,254.8,156.3,250.5,151.5z M242.4,198.3
		c-1.3,4-3.2,7.6-5.6,10.8c-2.5,3.2-5.5,5.8-9.2,7.7c-3.6,1.9-7.8,2.9-12.5,2.9c-4.6,0-8.7-0.9-12.3-2.8c-3.6-1.9-6.7-4.4-9.2-7.5
		c-2.5-3.1-4.4-6.7-5.7-10.7c-1.3-4-2-8.2-2-12.5c0-4.1,0.6-8.2,1.9-12.2c1.3-4,3.1-7.6,5.6-10.7c2.4-3.1,5.5-5.7,9.2-7.6
		c3.7-1.9,7.8-2.9,12.5-2.9c4.5,0,8.6,0.9,12.2,2.7c3.6,1.8,6.7,4.3,9.2,7.4c2.5,3.1,4.4,6.7,5.8,10.7c1.4,4,2,8.2,2,12.5
		C244.3,190.3,243.7,194.4,242.4,198.3z"/>
	<path id="XMLID_111_" d="M345.7,187.1c0,4.1-0.4,8.2-1.2,12.1c-0.8,3.9-2.2,7.4-4.1,10.4c-1.9,3-4.5,5.5-7.6,7.3
		c-3.2,1.9-7,2.8-11.6,2.8c-4.5,0-8.3-0.9-11.4-2.7s-5.6-4.3-7.5-7.3c-1.9-3-3.4-6.5-4.2-10.4c-0.8-3.9-1.3-8-1.3-12.2v-51.5h-19
		v51.5c0,6.5,0.7,12.7,2.2,18.8c1.6,6,4,11.3,7.5,15.9c3.5,4.6,8,8.2,13.6,11c5.6,2.8,12.4,4.2,20.4,4.2c7.7,0,14.3-1.3,19.9-3.9
		c5.5-2.6,10.1-6.2,13.6-10.7c3.5-4.5,5.9-9.8,7.6-15.8c1.6-6,2.3-12.5,2.3-19.3v-51.5h-19V187.1z"/>
	<polygon id="XMLID_112_" points="375.7,153.6 407.7,153.6 407.7,236.6 427.7,236.6 427.7,153.6 459.7,153.6 459.7,135.6 
		375.7,135.6 	"/>
	<rect id="XMLID_113_" x="471.7" y="135.6" width="20" height="101"/>
	<path id="XMLID_116_" d="M600.4,205c2.3-5.9,3.5-12.1,3.5-18.6c0-6.3-1.2-12.5-3.5-18.6c-2.4-6.1-5.6-11.6-9.9-16.4
		c-4.2-4.8-9.3-8.7-15.3-11.6c-6-3-12.6-4.4-19.8-4.4c-7,0-13.6,1.4-19.6,4.2c-6,2.8-11.2,6.5-15.6,11.2
		c-4.4,4.7-7.8,10.1-10.3,16.2c-2.5,6.1-3.7,12.5-3.7,19.2c0,6.4,1.2,12.6,3.5,18.8c2.3,6.1,5.7,11.5,9.9,16.2
		c4.3,4.7,9.4,8.5,15.4,11.4c6,2.9,12.6,4.4,20,4.4c4.8,0,9.3-0.6,13.5-1.9c4.2-1.3,8.2-2.8,11.8-5.1l5.8,6.7h18.3L590.8,221
		C594.9,216.4,598.1,211,600.4,205z M582.7,197c-1,3.6-2.5,7.1-4.4,10.1l-6.9-7.5h-18.3l15.2,17c-1.9,1-3.9,1.7-6.1,2.3
		c-2.2,0.6-4.6,0.9-7.1,0.9c-4.6,0-8.7-1-12.3-2.9c-3.6-1.9-6.7-4.4-9.2-7.5c-2.5-3.1-4.4-6.7-5.7-10.7c-1.3-4-2-8.2-2-12.6
		c0-4.1,0.6-8.2,1.9-12.2c1.3-4,3.1-7.6,5.6-10.8c2.4-3.2,5.5-5.8,9.2-7.7c3.7-1.9,7.8-2.9,12.5-2.9c4.5,0,8.6,0.9,12.2,2.8
		c3.6,1.9,6.7,4.4,9.2,7.5c2.5,3.1,4.4,6.7,5.8,10.7c1.4,4,2,8.2,2,12.5C584.3,189.8,583.8,193.4,582.7,197z"/>
	<path id="XMLID_117_" d="M685.7,187.1c0,4.1-0.5,8.2-1.3,12.1c-0.8,3.9-2.2,7.4-4.1,10.4c-1.9,3-4.5,5.5-7.6,7.3
		c-3.2,1.9-7,2.8-11.6,2.8c-4.5,0-8.3-0.9-11.4-2.7c-3.1-1.8-5.6-4.3-7.5-7.3c-1.9-3-3.3-6.5-4.1-10.4c-0.8-3.9-1.2-8-1.2-12.2
		v-51.5h-19v51.5c0,6.5,0.6,12.7,2.1,18.8c1.6,6,4,11.3,7.4,15.9c3.5,4.6,8,8.2,13.6,11c5.6,2.8,12.4,4.2,20.3,4.2
		c7.7,0,14.3-1.3,19.9-3.9c5.5-2.6,10.1-6.2,13.6-10.7c3.5-4.5,6-9.8,7.7-15.8c1.6-6,2.4-12.5,2.4-19.3v-51.5h-19V187.1z"/>
	<polygon id="XMLID_118_" points="743.7,192.6 785.7,192.6 785.7,177.6 743.7,177.6 743.7,153.6 792.7,153.6 792.7,135.6 
		724.7,135.6 724.7,236.6 793.7,236.6 793.7,219.6 743.7,219.6 	"/>
	<path id="XMLID_119_" d="M870.1,187.8c-2.8-2.3-6.2-4.1-10.2-5.6c-4-1.5-8.4-2.9-13.3-4.2c-3.8-0.9-7.1-1.8-9.9-2.7
		c-2.9-0.8-5.2-1.8-7.1-2.8c-1.9-1-3.3-2.2-4.3-3.6c-1-1.4-1.5-3.1-1.5-5.1c0-3.6,1.3-6.3,3.9-8.3c2.6-2,6.6-3,12-3
		c3,0,6,0.4,8.9,1.1c2.9,0.8,5.6,1.7,8.1,2.7c2.5,1.1,4.6,2.2,6.3,3.3c1.7,1.1,2.9,2,3.6,2.7l8.6-15.8c-4.4-3-9.6-5.6-15.5-7.8
		c-5.9-2.2-12.4-3.3-19.5-3.3c-5.1,0-9.8,0.7-14.2,2c-4.4,1.4-8.3,3.4-11.6,6c-3.3,2.6-5.9,5.9-7.8,9.9c-1.9,3.9-2.8,8.5-2.8,13.5
		c0,3.9,0.6,7.2,1.8,9.9c1.2,2.8,2.9,5.2,5.3,7.3c2.3,2.1,5.3,3.9,8.8,5.5c3.5,1.6,7.7,3,12.5,4.3c3.9,1.1,7.5,2.2,10.7,3.1
		c3.2,0.9,5.9,2,8.2,3.1c2.3,1.1,4,2.4,5.2,3.9c1.2,1.5,1.8,3.3,1.8,5.5c0,6.9-5.4,10.3-16.1,10.3c-3.9,0-7.6-0.5-11.3-1.4
		c-3.7-0.9-7-2.1-10-3.5c-3-1.4-5.6-2.7-7.8-4.1c-2.2-1.4-3.7-2.5-4.6-3.3l-8.6,16.8c5.8,4.1,12.4,7.3,19.7,9.6
		c7.3,2.3,14.8,3.4,22.3,3.4c4.9,0,9.6-0.5,14-1.6c4.5-1.1,8.4-2.8,11.8-5.1c3.4-2.3,6.2-5.4,8.2-9.2c2-3.8,3-8.4,3-13.7
		c0-4.6-0.8-8.5-2.3-11.6C875.1,192.8,872.9,190.1,870.1,187.8z"/>
</g>
</svg>
