<?xml version="1.0" encoding="utf-8"?>
<!-- Generator: Adobe Illustrator 19.0.0, SVG Export Plug-In . SVG Version: 6.00 Build 0)  -->
<svg version="1.1" id="Layer_1" xmlns="http://www.w3.org/2000/svg" xmlns:xlink="http://www.w3.org/1999/xlink" x="0px" y="0px"
	 viewBox="0 0 953.4 391.4" style="enable-background:new 0 0 953.4 391.4;" xml:space="preserve">
<style type="text/css">
	.st0{fill:none;}
</style>
<g id="XMLID_1_">
	<path id="XMLID_2_" class="st0" d="M83.9,270.8H68.3v53.9c4,0.6,9.1,0.8,15.6,0.8c19,0,36.6-6.8,36.6-27.5
		C120.5,278.6,103.9,270.8,83.9,270.8z"/>
	<path id="XMLID_89_" class="st0" d="M116.1,232.8c0-16.7-12.8-23.3-31.3-23.3c-8.4,0-13.4,0.6-16.4,1.3v46.1h17.1
		C104.8,256.8,116.1,246.5,116.1,232.8z"/>
	<path id="XMLID_90_" class="st0" d="M790.3,247.6c-18.8,0-27,17.2-28.5,30.2h54.2C816.3,265.8,811.2,247.6,790.3,247.6z"/>
	<path id="XMLID_91_" class="st0" d="M294.6,85.6c-18.8,0-27,17.2-28.5,30.2h54.2C320.5,103.8,315.4,85.6,294.6,85.6z"/>
	<path id="XMLID_92_" class="st0" d="M730.9,85.6c-18.8,0-27,17.2-28.5,30.2h54.2C756.8,103.8,751.8,85.6,730.9,85.6z"/>
	<path id="XMLID_93_" class="st0" d="M207.7,248.1c-21.9,0-31.4,20.3-31.4,39.7c0,22.4,12.9,39.2,31,39.2c17.7,0,31-16.7,31-39.7
		C238.3,270,229.7,248.1,207.7,248.1z"/>
	<path id="XMLID_94_" class="st0" d="M808.1,147.5c0,12,8,17.7,17.5,17.7c13.3,0,21.7-8.4,24.7-17.1c0.6-1.9,1-4,1-5.9v-17.7
		C831.3,124.1,808.1,127.7,808.1,147.5z"/>
	<path id="XMLID_95_" class="st0" d="M400.3,85.6c-18.8,0-27,17.2-28.5,30.2H426C426.2,103.8,421.2,85.6,400.3,85.6z"/>
	<path id="XMLID_96_" class="st0" d="M558.5,248.9c-19.2,0-30.8,16.2-30.8,39.2c0,20.3,9.8,38,30.2,38c12,0,22.5-7.4,26.7-20.3
		c0.8-2.5,1.7-6.1,1.7-8.9v-19.2c0-2.5-0.4-5.5-1.1-7.8C582.5,258.6,572.4,248.9,558.5,248.9z"/>
	<path id="XMLID_97_" d="M94.9,137.8c0-20.9-12.2-32.5-36.3-41.8C39,88.4,30.4,81.9,30.4,68.6c0-9.7,7.4-21.3,26.8-21.3
		c12.9,0,22.4,4.2,27,6.8l5.1-15c-6.3-3.6-16.9-7-31.4-7c-27.6,0-46,16.5-46,38.6c0,20,14.3,32.1,37.6,40.3
		c19.2,7.4,26.8,15,26.8,28.3c0,14.3-11,24.3-29.8,24.3c-12.7,0-24.7-4.2-32.9-9.3l-4.6,15.4c7.6,5.1,22.6,9.1,36.3,9.1
		C78.7,178.7,94.9,159.7,94.9,137.8z"/>
	<path id="XMLID_98_" d="M165.8,162.3c-2.3,0.6-5.8,1.3-10.7,1.3c-10.3,0-13.9-7.2-13.9-19.8V88.8h26v-14h-26V45.2l-18,4.9v24.8h-16
		v14h16v55.5c0,12,1.8,21.1,7,26.6c4.4,5.1,11.3,7.8,20,7.8c7.2,0,12.8-1.1,16.4-2.5L165.8,162.3z"/>
	<path id="XMLID_99_" d="M188.3,106.3v70.5h19v-54.6c0-3.2,0.3-6.1,0.7-8.7c2.5-13.9,11.9-23.8,24.9-23.8c2.5,0,4.4,0.2,6.4,0.6
		V72.8c-2-0.4-3.3-0.5-5.4-0.5c-12.4,0-23.8,8.5-28.4,22.5h-0.8l-0.6-20h-16.2C188.4,83.8,188.3,94.3,188.3,106.3z"/>
	<path id="XMLID_102_" d="M332.3,172.4l-3.2-13.3c-7,3-15,5.2-28.3,5.2c-18.6,0-34.6-10.5-35-35.5h71.7c0.2-2,0.6-4.8,0.6-8.6
		c0-18.8-8.9-48.1-42.2-48.1c-29.8,0-47.9,24.3-47.9,55.1c0,30.8,18.8,51.5,50.2,51.5C314.6,178.7,325.8,175.3,332.3,172.4z
		 M294.6,85.6c20.9,0,26,18.2,25.7,30.2h-54.2C267.5,102.8,275.8,85.6,294.6,85.6z"/>
	<path id="XMLID_105_" d="M438,172.4l-3.2-13.3c-7,3-15,5.2-28.3,5.2c-18.6,0-34.6-10.5-35-35.5h71.7c0.2-2,0.6-4.8,0.6-8.6
		c0-18.8-8.9-48.1-42.2-48.1c-29.8,0-47.9,24.3-47.9,55.1c0,30.8,18.8,51.5,50.2,51.5C420.3,178.7,431.5,175.3,438,172.4z
		 M400.3,85.6c20.9,0,26,18.2,25.7,30.2h-54.2C373.3,102.8,381.5,85.6,400.3,85.6z"/>
	<path id="XMLID_106_" d="M514,162.3c-2.3,0.6-5.9,1.3-10.8,1.3c-10.3,0-13.9-7.2-13.9-19.8V88.8h27v-14h-27V45.2l-18,4.9v24.8h-16
		v14h16v55.5c0,12,1.8,21.1,7.1,26.6c4.4,5.1,11.4,7.8,20,7.8c7.2,0,12.9-1.1,16.4-2.5L514,162.3z"/>
	<path id="XMLID_107_" d="M675.4,74.8H657l-14.6,51.1c-3.4,12-6.1,22.9-7.8,32.9H634c-2.3-10-5.3-20.9-9.1-33.1l-15.8-50.9h-15.6
		l-16.7,51.9c-3.4,11-6.8,22.1-9.1,32.1h-0.6c-1.9-10-4.6-20.9-7.6-32.3l-13.5-51.7h-19l30.8,102h16.9l16.5-48.4
		c3.6-11,6.8-21.6,9.3-33.6h0.4c2.5,12,5.5,22,9.1,33.4l15.6,48.6h16.9L675.4,74.8z"/>
	<path id="XMLID_110_" d="M765.5,159.1c-7,3-15,5.2-28.3,5.2c-18.6,0-34.6-10.5-35-35.5h71.7c0.2-2,0.6-4.8,0.6-8.6
		c0-18.8-8.9-48.1-42.2-48.1c-29.8,0-47.9,24.3-47.9,55.1c0,30.8,18.8,51.5,50.2,51.5c16.2,0,27.4-3.4,34-6.3L765.5,159.1z
		 M730.9,85.6c20.9,0,26,18.2,25.7,30.2h-54.2C703.9,102.8,712.1,85.6,730.9,85.6z"/>
	<path id="XMLID_113_" d="M852.6,163.8l1.5,13H871c-1.3-7-1.7-15.8-1.7-24.7v-38.2c0-20.5-7.6-41.8-38.8-41.8
		c-12.9,0-25.1,3.6-33.5,9.1l4.2,12.2c7.2-4.6,17.3-7.6,26.8-7.6c20.9,0,23.4,15.2,23.4,23.6v2.1c-40-0.2-61.6,13.3-61.6,38
		c0,14.8,10.5,29.4,31.1,29.4c14.6,0,25.4-7.2,31.1-15.2H852.6z M851.3,142.2c0,1.9-0.4,4-1,5.9c-3,8.7-11.4,17.1-24.7,17.1
		c-9.5,0-17.5-5.7-17.5-17.7c0-19.8,23.2-23.4,43.2-23V142.2z"/>
	<path id="XMLID_114_" d="M944.2,72.3c-12.4,0-23.4,8.5-28.1,22.5h-0.8l-0.6-20h-16.2c0.6,9,0.9,19.5,0.9,31.5v70.5h18v-54.6
		c0-3.2,0.6-6.1,1-8.7c2.5-13.9,11.7-23.8,24.8-23.8c2.5,0,4.2,0.2,6.2,0.6V72.8C948.3,72.4,946.3,72.3,944.2,72.3z"/>
	<path id="XMLID_117_" d="M110.3,262.4V262c15-5.5,24.2-17.5,24.2-31.2c0-11.2-4.3-19.6-11.7-25.1c-8.9-7.2-20.6-10.3-39-10.3
		c-12.9,0-25.5,1.3-33.5,3v139.9c6,0.8,15.8,1.7,28.5,1.7c23.2,0,39.3-4.2,49.2-13.3c7.2-7,11.8-16.2,11.8-28.5
		C139.8,277,124.3,265.8,110.3,262.4z M68.3,210.7c3-0.6,8-1.3,16.4-1.3c18.6,0,31.3,6.7,31.3,23.3c0,13.7-11.3,24-30.7,24H68.3
		V210.7z M83.9,325.5c-6.5,0-11.6-0.2-15.6-0.8v-53.9h15.6c20,0,36.6,7.8,36.6,27.3C120.5,318.7,102.9,325.5,83.9,325.5z"/>
	<path id="XMLID_121_" d="M208.2,234.2c-28.3,0-50.6,20-50.6,54.2c0,32.3,21.3,52.5,49,52.5c24.7,0,50.9-16.5,50.9-54.2
		C257.3,255.5,237.5,234.2,208.2,234.2z M207.3,327c-18.1,0-31-16.9-31-39.2c0-19.4,9.5-39.7,31.4-39.7c21.9,0,30.6,21.9,30.6,39.2
		C238.3,310.3,225,327,207.3,327z"/>
	<path id="XMLID_122_" d="M366.3,236.8h-19v62.4c0,3.4-0.5,6.8-1.5,9.5c-3.4,8.2-12.1,16.9-24.6,16.9c-16.9,0-22.9-13.1-22.9-32.5
		v-56.2h-18v59.4c0,35.9,19.1,44.7,35.1,44.7c18.1,0,28.8-11.1,33.7-19.1h0.4l1.1,17h16.5c-0.6-8-0.7-17.5-0.7-28V236.8z"/>
	<path id="XMLID_123_" d="M419.3,207.2l-18,4.9v24.8h-16v14h16v55.5c0,12,1.9,21.1,7.1,26.6c4.4,5.1,11.4,7.8,20,7.8
		c7.2,0,12.9-1.1,16.4-2.5l-0.8-13.9c-2.3,0.6-5.9,1.3-10.8,1.3c-10.3,0-14-7.2-14-19.8v-54.9h27v-14h-27V207.2z"/>
	<path id="XMLID_124_" d="M476.1,196.2c-6.8,0-11.6,5.1-11.6,11.6c0,6.3,4.6,11.4,11.2,11.4c7.4,0,12-5.1,11.8-11.4
		C487.5,201.2,483.1,196.2,476.1,196.2z"/>
	<rect id="XMLID_125_" x="467.3" y="236.8" width="18" height="102"/>
	<path id="XMLID_128_" d="M586.9,251.8h-0.4c-5.1-10-15.6-17.7-31.4-17.7c-21.5,0-46.2,16.9-46.2,55.1c0,31,19.4,51.7,43.3,51.7
		c16.5,0,27.9-8.1,33.3-18.1h0.9v58h18V264.5c0-10.5,0.3-19.7,0.7-27.7h-17.5L586.9,251.8z M586.3,297c0,2.7-0.9,6.3-1.7,8.9
		c-4.2,12.9-14.7,20.3-26.7,20.3c-20.5,0-30.2-17.7-30.2-38c0-23,11.6-39.2,30.8-39.2c13.9,0,24.1,9.7,26.8,21.1
		c0.6,2.3,1.1,5.3,1.1,7.8V297z"/>
	<path id="XMLID_129_" d="M720.3,236.8h-18v62.4c0,3.4-0.8,6.8-1.9,9.5c-3.4,8.2-12,16.9-24.4,16.9c-16.9,0-22.7-13.1-22.7-32.5
		v-56.2h-19v59.4c0,35.9,19.2,44.7,35.3,44.7c18.1,0,28.9-11.1,33.8-19.1h0.4l1.1,17h16.5c-0.6-8-1-17.5-1-28V236.8z"/>
	<path id="XMLID_132_" d="M791.8,234.2c-29.8,0-47.9,24.3-47.9,55.1s18.8,51.5,50.2,51.5c16.2,0,27.4-3.4,34-6.3l-3.2-13.3
		c-7,3-15,5.2-28.3,5.2c-18.6,0-34.6-10.5-35-35.5h71.7c0.2-2,0.6-4.8,0.6-8.6C834,263.4,825.1,234.2,791.8,234.2z M816.1,277.8
		h-54.2c1.5-13,9.7-30.2,28.5-30.2C811.2,247.6,816.3,265.8,816.1,277.8z"/>
	<path id="XMLID_133_" d="M889.9,279.3c-13.3-5.1-19.4-8.9-19.4-17.3c0-7.6,6.1-13.9,17.1-13.9c9.5,0,16.9,3.4,20.9,5.9l4.6-13.5
		c-5.7-3.4-14.8-6.3-25.1-6.3c-21.9,0-35.2,13.5-35.2,30c0,12.2,8.7,22.4,27,28.9c13.7,5.1,19,9.9,19,18.8c0,8.4-6.3,15.2-19.8,15.2
		c-9.3,0-19-3.8-24.5-7.4l-4.6,14.1c7.2,4.2,17.5,7,28.7,7c24.3,0,38.2-12.7,38.2-30.6C916.7,294.9,907.6,286.1,889.9,279.3z"/>
</g>
</svg>
